Coordinates
version=1
nRows=18
nColumns=22
inDegrees=yes

Units are S.I. units (second, meters, Newtons, ...)
If the header above contains a line with 'inDegrees', this indicates whether rotational values are in degrees (yes) or radians (no).

endheader
time	pelvis_tilt	pelvis_list	pelvis_rotation	pelvis_tx	pelvis_ty	pelvis_tz	hip_flexion_r	hip_adduction_r	hip_rotation_r	knee_angle_r	ankle_angle_r	subtalar_angle_r	hip_flexion_l	hip_adduction_l	hip_rotation_l	knee_angle_l	ankle_angle_l	subtalar_angle_l	lumbar_extension	lumbar_bending	lumbar_rotation
      3.10000000	     -0.44064053	     -6.47342265	     10.52016458	     -0.18576291	      0.95425026	     -0.28708825	     24.90617302	      3.15385682	     -9.70602802	    -28.00418347	      3.40553077	      3.34884684	     -3.12848339	     -7.57173922	     13.86064217	    -39.23701612	      7.79941964	     15.20125607	     -2.37476296	      6.23711391	     -9.47027289
      3.11000000	     -0.45865573	     -6.69571803	     10.42685527	     -0.17716422	      0.95514876	     -0.28526573	     24.32645578	      3.66410999	     -9.64615256	    -27.81574105	      3.87163593	      3.21151784	     -1.68627943	     -7.79496251	     13.49966120	    -41.84258630	      6.97310043	     15.13089836	     -2.31723238	      6.50482051	     -9.27073051
      3.12000000	     -0.53123280	     -6.91645756	     10.34640529	     -0.16880021	      0.95592517	     -0.28344451	     23.81247411	      4.15179621	     -9.60855076	    -27.62588918	      4.35155897	      3.01840566	     -0.12895636	     -8.02240211	     13.18163487	    -44.39658346	      6.28959674	     14.79986055	     -2.21769230	      6.75063258	     -9.08436614
      3.13000000	     -0.57660863	     -7.17859842	     10.24594872	     -0.16054580	      0.95671438	     -0.28155403	     23.24061116	      4.70616138	     -9.53949154	    -27.35365052	      4.78338227	      2.85075648	      1.41381128	     -8.33673285	     12.82862114	    -46.81759442	      5.78268404	     14.17189206	     -2.15201425	      7.03453918	     -8.87339914
      3.14000000	     -0.60990881	     -7.45820652	     10.13072235	     -0.15240431	      0.95751026	     -0.27962447	     22.63279188	      5.29127671	     -9.44640642	    -27.02240861	      5.18288860	      2.70009958	      2.93884521	     -8.69998181	     12.47546588	    -49.06886800	      5.44620326	     13.27109791	     -2.10601433	      7.32885652	     -8.64419122
      3.15000000	     -0.63255129	     -7.74720024	      9.99848063	     -0.14436093	      0.95832068	     -0.27765416	     21.99020872	      5.89866023	     -9.32488867	    -26.63605480	      5.54793124	      2.56289541	      4.42962343	     -9.09930019	     12.12938445	    -51.11584012	      5.27643396	     12.13681953	     -2.07861098	      7.62295847	     -8.39564320
      3.16000000	     -0.64380910	     -8.02911278	      9.84144655	     -0.13639565	      0.95915591	     -0.27565458	     21.31373292	      6.50940547	     -9.17426192	    -26.20835499	      5.88602547	      2.43156907	      5.86585258	     -9.51293590	     11.78173526	    -52.92954052	      5.25634502	     10.78610847	     -2.07168156	      7.90101730	     -8.12089303
      3.17000000	     -0.64884748	     -8.30354697	      9.66956696	     -0.12849431	      0.96001378	     -0.27364948	     20.60611440	      7.11642229	     -9.00414528	    -25.73731263	      6.19420757	      2.31372195	      7.24655277	     -9.93148890	     11.44875401	    -54.49462041	      5.38401383	      9.36311876	     -2.07530246	      8.16292828	     -7.82440095
      3.18000000	     -0.64971747	     -8.54909652	      9.47235165	     -0.12065015	      0.96090063	     -0.27164980	     19.86956506	      7.70118054	     -8.78308634	    -25.23364872	      6.47645947	      2.19667078	      8.55760169	    -10.32571730	     11.11336594	    -55.79563113	      5.63417560	      7.83875287	     -2.09137181	      8.38837974	     -7.52770518
      3.19000000	     -0.65140131	     -8.77402677	      9.26120647	     -0.11286724	      0.96179901	     -0.26967630	     19.11143184	      8.26357042	     -8.53098928	    -24.69762627	      6.72310544	      2.08800642	      9.80726169	    -10.69157733	     10.79741835	    -56.83562151	      5.98187344	      6.34293987	     -2.11295626	      8.58552655	     -7.22204861
      3.20000000	     -0.65564163	     -8.96547516	      9.02805821	     -0.10512233	      0.96270290	     -0.26773936	     18.33496962	      8.78798102	     -8.24989798	    -24.14131813	      6.95462060	      1.98201039	     10.98416468	    -11.01027882	     10.48602130	    -57.60919809	      6.41244948	      4.90288848	     -2.13779455	      8.74309945	     -6.89342867
      3.21000000	     -0.66632985	     -9.11415655	      8.76987376	     -0.09737860	      0.96359897	     -0.26586129	     17.54983282	      9.25586255	     -7.97249190	    -23.58429536	      7.18971259	      1.87348130	     12.08008484	    -11.27367094	     10.15465219	    -58.11059020	      6.91904752	      3.52796848	     -2.15771608	      8.85236832	     -6.55116008
      3.22000000	     -0.67895978	     -9.23327050	      8.50403051	     -0.08969967	      0.96446964	     -0.26405201	     16.75672817	      9.68621970	     -7.65197041	    -23.02121730	      7.40173245	      1.77044913	     13.11769900	    -11.47965760	      9.84185404	    -58.38025922	      7.46532911	      2.30239267	     -2.18195864	      8.93044276	     -6.22318496
      3.23000000	     -0.70176382	     -9.32376390	      8.22027538	     -0.08204278	      0.96529808	     -0.26231234	     15.96292210	     10.07562734	     -7.30762049	    -22.45455839	      7.59562349	      1.67568065	     14.09531148	    -11.63516953	      9.52027987	    -58.41692318	      8.03425685	      1.26730608	     -2.19724603	      8.97903245	     -5.90978848
      3.24000000	     -0.72701720	     -9.38091834	      7.93749780	     -0.07443917	      0.96606922	     -0.26068040	     15.17602769	     10.41266684	     -6.95622312	    -21.90877434	      7.80092162	      1.58097845	     15.01485400	    -11.72404419	      9.21349703	    -58.24316158	      8.62772595	      0.37953154	     -2.21560220	      8.99555035	     -5.60105065
      3.25000000	     -0.76307466	     -9.42170073	      7.64930571	     -0.06688453	      0.96675342	     -0.25913640	     14.40701038	     10.71610943	     -6.59402516	    -21.38192846	      8.00459724	      1.50056482	     15.89683897	    -11.76481318	      8.92321030	    -57.88783934	      9.22727643	     -0.27266098	     -2.22549663	      8.99788934	     -5.28742069
      3.26000000	     -0.79850751	     -9.43544406	      7.36535896	     -0.05933887	      0.96736310	     -0.25770144	     13.64374365	     10.97142196	     -6.24910740	    -20.87951149	      8.22379720	      1.41744731	     16.72303952	    -11.75663444	      8.63031958	    -57.35229848	      9.81794495	     -0.83079509	     -2.23388858	      8.97591481	     -5.01404947
      3.27000000	     -0.84012685	     -9.43483688	      7.09088020	     -0.05183590	      0.96787129	     -0.25638922	     12.90045696	     11.19053394	     -5.91278823	    -20.40426921	      8.45389941	      1.34287145	     17.51993813	    -11.70579626	      8.35367183	    -56.67211068	     10.38752326	     -1.23243687	     -2.23667825	      8.94629062	     -4.76445934
